<?xml version="1.0" encoding="UTF-8" standalone="no"?>
<!-- Created with Inkscape (http://www.inkscape.org/) -->

<svg
   xmlns:dc="http://purl.org/dc/elements/1.1/"
   xmlns:cc="http://creativecommons.org/ns#"
   xmlns:rdf="http://www.w3.org/1999/02/22-rdf-syntax-ns#"
   xmlns:svg="http://www.w3.org/2000/svg"
   xmlns="http://www.w3.org/2000/svg"
   xmlns:sodipodi="http://sodipodi.sourceforge.net/DTD/sodipodi-0.dtd"
   xmlns:inkscape="http://www.inkscape.org/namespaces/inkscape"
   width="16mm"
   height="16mm"
   viewBox="0 0 16 16"
   version="1.1"
   id="svg8"
   inkscape:version="0.92.5 (2060ec1f9f, 2020-04-08)"
   sodipodi:docname="close.svg">
  <defs
     id="defs2" />
  <sodipodi:namedview
     id="base"
     pagecolor="#ffffff"
     bordercolor="#666666"
     borderopacity="1.0"
     inkscape:pageopacity="0.0"
     inkscape:pageshadow="2"
     inkscape:zoom="7.9195959"
     inkscape:cx="35.820585"
     inkscape:cy="11.934659"
     inkscape:document-units="mm"
     inkscape:current-layer="layer1"
     showgrid="false"
     inkscape:window-width="1920"
     inkscape:window-height="1017"
     inkscape:window-x="0"
     inkscape:window-y="0"
     inkscape:window-maximized="1" />
  <metadata
     id="metadata5">
    <rdf:RDF>
      <cc:Work
         rdf:about="">
        <dc:format>image/svg+xml</dc:format>
        <dc:type
           rdf:resource="http://purl.org/dc/dcmitype/StillImage" />
        <dc:title></dc:title>
      </cc:Work>
    </rdf:RDF>
  </metadata>
  <g
     inkscape:label="Layer 1"
     inkscape:groupmode="layer"
     id="layer1"
     transform="translate(0,-281)">
    <path
       style="opacity:1;fill:#ffa9a9;fill-opacity:1;stroke:#ff0606;stroke-width:0.46499997;stroke-miterlimit:4;stroke-dasharray:none;stroke-opacity:1"
       d="m 14.531541,281.96824 c -0.136372,0 -0.272743,0.0521 -0.377238,0.15657 l -5.993949,5.99395 -5.9691447,-5.96914 c -0.2089899,-0.20899 -0.545486,-0.20899 -0.7544759,0 l -0.133842,0.13384 c -0.2089899,0.20899 -0.2089899,0.54549 0,0.75448 l 5.9691447,5.96914 -6.0110026,6.01049 c -0.2089899,0.20899 -0.2089899,0.54548 0,0.75447 l 0.133842,0.13385 c 0.2089899,0.20899 0.545486,0.20899 0.7544759,0 l 6.0110026,-6.01101 6.03529,6.03581 c 0.20899,0.20899 0.545486,0.20899 0.754476,0 l 0.133842,-0.13332 c 0.20899,-0.20899 0.20899,-0.54549 0,-0.75448 l -6.0358071,-6.03581 5.9939491,-5.99395 c 0.20899,-0.20899 0.20899,-0.54548 0,-0.75447 l -0.133325,-0.13385 c -0.104495,-0.10449 -0.240866,-0.15657 -0.377238,-0.15657 z"
       id="rect817"
       inkscape:connector-curvature="0" />
  </g>
</svg>
