<?xml version="1.0" encoding="UTF-8" standalone="no"?>
<!-- Created with Inkscape (http://www.inkscape.org/) -->

<svg
   xmlns:dc="http://purl.org/dc/elements/1.1/"
   xmlns:cc="http://creativecommons.org/ns#"
   xmlns:rdf="http://www.w3.org/1999/02/22-rdf-syntax-ns#"
   xmlns:svg="http://www.w3.org/2000/svg"
   xmlns="http://www.w3.org/2000/svg"
   xmlns:sodipodi="http://sodipodi.sourceforge.net/DTD/sodipodi-0.dtd"
   xmlns:inkscape="http://www.inkscape.org/namespaces/inkscape"
   width="16mm"
   height="16mm"
   viewBox="0 0 16 16"
   version="1.1"
   id="svg8"
   inkscape:version="0.92.5 (2060ec1f9f, 2020-04-08)"
   sodipodi:docname="pin.svg">
  <defs
     id="defs2" />
  <sodipodi:namedview
     id="base"
     pagecolor="#ffffff"
     bordercolor="#666666"
     borderopacity="1.0"
     inkscape:pageopacity="0.0"
     inkscape:pageshadow="2"
     inkscape:zoom="7.9195959"
     inkscape:cx="-15.403407"
     inkscape:cy="35.062076"
     inkscape:document-units="mm"
     inkscape:current-layer="layer1"
     showgrid="false"
     inkscape:window-width="1920"
     inkscape:window-height="1017"
     inkscape:window-x="0"
     inkscape:window-y="0"
     inkscape:window-maximized="1" />
  <metadata
     id="metadata5">
    <rdf:RDF>
      <cc:Work
         rdf:about="">
        <dc:format>image/svg+xml</dc:format>
        <dc:type
           rdf:resource="http://purl.org/dc/dcmitype/StillImage" />
        <dc:title></dc:title>
      </cc:Work>
    </rdf:RDF>
  </metadata>
  <g
     inkscape:label="Layer 1"
     inkscape:groupmode="layer"
     id="layer1"
     transform="translate(0,-281)">
    <rect
       style="opacity:1;fill:#b1b1b1;fill-opacity:1;stroke:none;stroke-width:0.46499997;stroke-miterlimit:4;stroke-dasharray:none;stroke-opacity:1"
       id="rect4600"
       width="1.2756699"
       height="5.9294987"
       x="7.4177828"
       y="290.00745"
       ry="0.53349525" />
    <path
       style="opacity:1;fill:#f5f5f5;fill-opacity:1;stroke:#ffffff;stroke-width:1.84428859;stroke-miterlimit:4;stroke-dasharray:none;stroke-opacity:1"
       d="M 17.357422 5.7988281 C 16.240358 5.7988281 15.341797 6.6973897 15.341797 7.8144531 L 15.341797 8.2011719 C 15.341797 9.3182353 16.240358 10.216797 17.357422 10.216797 L 18.828125 10.216797 C 18.825275 10.263056 18.814453 10.306514 18.814453 10.353516 L 18.814453 28.578125 C 18.814453 28.82594 18.863255 29.060989 18.9375 29.283203 L 12.117188 29.283203 C 11.000124 29.283203 10.101562 30.183718 10.101562 31.300781 L 10.101562 34.970703 C 10.101563 36.087767 11.000124 36.986328 12.117188 36.986328 L 48.492188 36.986328 C 49.609251 36.986328 50.507812 36.087767 50.507812 34.970703 L 50.507812 31.300781 C 50.507813 30.183718 49.609251 29.283203 48.492188 29.283203 L 41.671875 29.283203 C 41.74612 29.060989 41.794922 28.82594 41.794922 28.578125 L 41.794922 10.353516 C 41.794922 10.306514 41.7841 10.263056 41.78125 10.216797 L 43.251953 10.216797 C 44.369017 10.216797 45.267578 9.3182353 45.267578 8.2011719 L 45.267578 7.8144531 C 45.267578 6.6973897 44.369017 5.7988281 43.251953 5.7988281 L 17.357422 5.7988281 z "
       transform="matrix(0.26458333,0,0,0.26458333,0,281)"
       id="rect888" />
  </g>
</svg>
