<?xml version="1.0" encoding="UTF-8" standalone="no"?>
<!-- Created with Inkscape (http://www.inkscape.org/) -->

<svg
   xmlns:dc="http://purl.org/dc/elements/1.1/"
   xmlns:cc="http://creativecommons.org/ns#"
   xmlns:rdf="http://www.w3.org/1999/02/22-rdf-syntax-ns#"
   xmlns:svg="http://www.w3.org/2000/svg"
   xmlns="http://www.w3.org/2000/svg"
   xmlns:sodipodi="http://sodipodi.sourceforge.net/DTD/sodipodi-0.dtd"
   xmlns:inkscape="http://www.inkscape.org/namespaces/inkscape"
   width="16mm"
   height="16mm"
   viewBox="0 0 16 16"
   version="1.1"
   id="svg8"
   inkscape:version="0.92.5 (2060ec1f9f, 2020-04-08)"
   sodipodi:docname="unpin.svg">
  <defs
     id="defs2" />
  <sodipodi:namedview
     id="base"
     pagecolor="#ffffff"
     bordercolor="#666666"
     borderopacity="1.0"
     inkscape:pageopacity="0.0"
     inkscape:pageshadow="2"
     inkscape:zoom="5.6"
     inkscape:cx="-7.5944617"
     inkscape:cy="34.414391"
     inkscape:document-units="mm"
     inkscape:current-layer="layer1"
     showgrid="false"
     inkscape:window-width="1920"
     inkscape:window-height="1017"
     inkscape:window-x="0"
     inkscape:window-y="0"
     inkscape:window-maximized="1" />
  <metadata
     id="metadata5">
    <rdf:RDF>
      <cc:Work
         rdf:about="">
        <dc:format>image/svg+xml</dc:format>
        <dc:type
           rdf:resource="http://purl.org/dc/dcmitype/StillImage" />
        <dc:title></dc:title>
      </cc:Work>
    </rdf:RDF>
  </metadata>
  <g
     inkscape:label="Layer 1"
     inkscape:groupmode="layer"
     id="layer1"
     transform="translate(0,-281)">
    <rect
       style="opacity:1;fill:#b1b1b1;fill-opacity:1;stroke:none;stroke-width:0.46499997;stroke-miterlimit:4;stroke-dasharray:none;stroke-opacity:1"
       id="rect4600"
       width="1.2756699"
       height="5.9294987"
       x="7.4177828"
       y="290.00745"
       ry="0.53349525" />
    <path
       style="opacity:1;fill:#f5f5f5;fill-opacity:1;stroke:#ffffff;stroke-width:0.48796803;stroke-miterlimit:4;stroke-dasharray:none;stroke-opacity:1"
       d="m 4.5924845,286.59752 c -0.2955565,0 -0.5333008,0.23774 -0.5333008,0.5333 v 0.10232 c 0,0.29555 0.2377443,0.5333 0.5333008,0.5333 H 4.981608 c -7.541e-4,0.0122 -0.00362,0.0237 -0.00362,0.0362 v 4.82193 c 0,0.0656 0.012912,0.12776 0.032556,0.18655 H 3.206006 c -0.2955566,0 -0.5333011,0.23826 -0.5333011,0.53382 v 0.971 c 3e-7,0.29556 0.2377445,0.5333 0.5333011,0.5333 h 9.624219 c 0.295556,0 0.5333,-0.23774 0.5333,-0.5333 v -0.971 c 0,-0.29556 -0.237744,-0.53382 -0.5333,-0.53382 h -1.804542 c 0.01964,-0.0588 0.03256,-0.12098 0.03256,-0.18655 v -4.82193 c 0,-0.0124 -0.0029,-0.0239 -0.0036,-0.0362 h 0.389124 c 0.295556,0 0.533301,-0.23775 0.533301,-0.5333 v -0.10232 c 0,-0.29556 -0.237745,-0.5333 -0.533301,-0.5333 z"
       id="rect888"
       inkscape:connector-curvature="0" />
  </g>
</svg>
