<?xml version="1.0" encoding="UTF-8" standalone="no"?>
<!-- Created with Inkscape (http://www.inkscape.org/) -->

<svg
   xmlns:dc="http://purl.org/dc/elements/1.1/"
   xmlns:cc="http://creativecommons.org/ns#"
   xmlns:rdf="http://www.w3.org/1999/02/22-rdf-syntax-ns#"
   xmlns:svg="http://www.w3.org/2000/svg"
   xmlns="http://www.w3.org/2000/svg"
   xmlns:sodipodi="http://sodipodi.sourceforge.net/DTD/sodipodi-0.dtd"
   xmlns:inkscape="http://www.inkscape.org/namespaces/inkscape"
   width="40"
   height="40"
   viewBox="0 0 10.583333 10.583333"
   version="1.1"
   id="svg8"
   inkscape:version="0.92.5 (2060ec1f9f, 2020-04-08)"
   sodipodi:docname="main_help.svg">
  <defs
     id="defs2" />
  <sodipodi:namedview
     id="base"
     pagecolor="#ffffff"
     bordercolor="#666666"
     borderopacity="1.0"
     inkscape:pageopacity="0.0"
     inkscape:pageshadow="2"
     inkscape:zoom="11.2"
     inkscape:cx="13.304869"
     inkscape:cy="22.558303"
     inkscape:document-units="mm"
     inkscape:current-layer="layer1"
     showgrid="false"
     inkscape:window-width="1920"
     inkscape:window-height="1017"
     inkscape:window-x="0"
     inkscape:window-y="0"
     inkscape:window-maximized="1"
     units="px" />
  <metadata
     id="metadata5">
    <rdf:RDF>
      <cc:Work
         rdf:about="">
        <dc:format>image/svg+xml</dc:format>
        <dc:type
           rdf:resource="http://purl.org/dc/dcmitype/StillImage" />
        <dc:title></dc:title>
      </cc:Work>
    </rdf:RDF>
  </metadata>
  <g
     inkscape:label="Layer 1"
     inkscape:groupmode="layer"
     id="layer1"
     transform="translate(0,-286.41667)">
    <circle
       style="opacity:1;fill:#399bff;fill-opacity:1;stroke:#6290c3;stroke-width:0.4;stroke-linecap:round;stroke-linejoin:miter;stroke-miterlimit:4;stroke-dasharray:none;stroke-dashoffset:0;stroke-opacity:1"
       id="path846"
       cx="5.378799"
       cy="291.75485"
       r="4.8108511" />
    <g
       aria-label="?"
       style="font-style:normal;font-weight:normal;font-size:2.87155867px;line-height:1.25;font-family:sans-serif;letter-spacing:0px;word-spacing:0px;fill:#ffffff;fill-opacity:1;stroke:#b8cbe6;stroke-width:0.21536689;stroke-opacity:1"
       id="text837"
       transform="translate(0.07087054,0.11811756)">
      <path
         d="m 4.6705089,294.2399 h 1.0246753 v 1.2821 H 4.6705089 Z m 0.9943894,-0.74201 H 4.7007949 v -0.77734 q 0,-0.50981 0.1413345,-0.83791 0.1413345,-0.3281 0.5956241,-0.7622 l 0.4542896,-0.44924 q 0.2877167,-0.26753 0.4139082,-0.50477 0.1312392,-0.23724 0.1312392,-0.48457 0,-0.44924 -0.3331457,-0.72686 -0.328098,-0.27763 -0.8732454,-0.27763 -0.3987653,0 -0.8530549,0.17667 -0.4492419,0.17667 -0.938865,0.51486 v -0.94896 q 0.4744802,-0.28771 0.9590557,-0.42905 0.4896232,-0.14133 1.0095323,-0.14133 0.9287698,0 1.4890602,0.48962 0.5653381,0.48962 0.5653381,1.2922 0,0.38362 -0.1817158,0.73191 -0.1817158,0.34324 -0.6360053,0.77734 l -0.4441943,0.4341 q -0.2372401,0.23724 -0.3381933,0.37353 -0.095906,0.13124 -0.1362869,0.25743 -0.030286,0.106 -0.045429,0.25743 -0.015143,0.15143 -0.015143,0.41391 z"
         style="font-size:10.3376112px;fill:#ffffff;fill-opacity:1;stroke:#b8cbe6;stroke-width:0.21536689;stroke-opacity:1"
         id="path843"
         inkscape:connector-curvature="0" />
    </g>
  </g>
</svg>
