<?xml version="1.0" encoding="UTF-8" standalone="no"?>
<!-- Created with Inkscape (http://www.inkscape.org/) -->

<svg
   xmlns:dc="http://purl.org/dc/elements/1.1/"
   xmlns:cc="http://creativecommons.org/ns#"
   xmlns:rdf="http://www.w3.org/1999/02/22-rdf-syntax-ns#"
   xmlns:svg="http://www.w3.org/2000/svg"
   xmlns="http://www.w3.org/2000/svg"
   xmlns:sodipodi="http://sodipodi.sourceforge.net/DTD/sodipodi-0.dtd"
   xmlns:inkscape="http://www.inkscape.org/namespaces/inkscape"
   width="40"
   height="40"
   viewBox="0 0 10.583333 10.583333"
   version="1.1"
   id="svg8"
   inkscape:version="0.92.5 (2060ec1f9f, 2020-04-08)"
   sodipodi:docname="options.svg">
  <defs
     id="defs2" />
  <sodipodi:namedview
     id="base"
     pagecolor="#ffffff"
     bordercolor="#666666"
     borderopacity="1.0"
     inkscape:pageopacity="0.0"
     inkscape:pageshadow="2"
     inkscape:zoom="15.839192"
     inkscape:cx="12.295185"
     inkscape:cy="14.873419"
     inkscape:document-units="mm"
     inkscape:current-layer="layer1"
     showgrid="false"
     inkscape:window-width="1920"
     inkscape:window-height="1017"
     inkscape:window-x="0"
     inkscape:window-y="0"
     inkscape:window-maximized="1"
     units="px"
     showguides="false" />
  <metadata
     id="metadata5">
    <rdf:RDF>
      <cc:Work
         rdf:about="">
        <dc:format>image/svg+xml</dc:format>
        <dc:type
           rdf:resource="http://purl.org/dc/dcmitype/StillImage" />
        <dc:title></dc:title>
      </cc:Work>
    </rdf:RDF>
  </metadata>
  <g
     inkscape:label="Layer 1"
     inkscape:groupmode="layer"
     id="layer1"
     transform="translate(0,-286.41667)">
    <g
       id="g939"
       transform="translate(-0.11963643,0.10377012)">
      <path
         inkscape:connector-curvature="0"
         id="path930"
         d="m 7.9219305,295.38048 c -0.080306,-0.0276 -0.1405097,-0.12158 -0.1416819,-0.22124 -3.483e-4,-0.0296 0.00443,-0.0569 0.013201,-0.0754 0.00771,-0.0162 0.1145388,-0.13173 0.2435826,-0.26351 0.3511901,-0.35863 0.4381911,-0.46085 0.6121231,-0.7193 0.2241537,-0.33308 0.4278932,-0.75251 0.551429,-1.1352 0.099186,-0.30726 0.1747197,-0.66281 0.1934585,-0.91066 0.021981,-0.29073 0.016675,-0.7797 -0.011036,-1.01661 -0.015408,-0.13174 -0.058422,-0.35421 -0.1007212,-0.52094 -0.1456518,-0.57411 -0.4417268,-1.18583 -0.7897043,-1.63159 -0.1071588,-0.13727 -0.2248536,-0.26719 -0.4477121,-0.49426 -0.1179274,-0.12015 -0.223482,-0.23035 -0.234564,-0.24489 -0.05689,-0.0745 -0.029371,-0.23419 0.050333,-0.29192 0.044929,-0.0326 0.124118,-0.0573 0.1694764,-0.0529 0.074583,0.007 0.1405203,0.0538 0.328443,0.23249 0.7137661,0.67858 1.2045286,1.54974 1.4149138,2.51161 0.086571,0.39579 0.1162358,0.72557 0.1064748,1.18357 -0.0056,0.26325 -0.01325,0.36894 -0.040285,0.55802 -0.07561,0.5286 -0.2194898,0.99973 -0.4487982,1.4696 -0.1890888,0.38746 -0.400431,0.71115 -0.6850714,1.04923 -0.096598,0.11477 -0.4288988,0.44864 -0.5146682,0.51716 -0.089877,0.0718 -0.1737903,0.0895 -0.2691843,0.0567 z"
         style="fill:#c49f2f;fill-opacity:1;stroke:#7d4400;stroke-width:0.17719869;stroke-miterlimit:4;stroke-dasharray:none;stroke-opacity:1" />
      <path
         inkscape:connector-curvature="0"
         id="path928"
         d="m 7.2952629,294.67487 c -0.02284,-0.007 -0.053718,-0.0244 -0.068629,-0.0356 -0.054949,-0.042 -0.1001915,-0.13977 -0.093218,-0.20163 0.00656,-0.0577 0.048685,-0.11372 0.2180687,-0.28888 0.2575246,-0.26639 0.3902864,-0.42773 0.533283,-0.64805 0.3352811,-0.51658 0.5318522,-1.13783 0.5553451,-1.75514 0.032082,-0.8429 -0.2231445,-1.63587 -0.7401784,-2.29969 -0.09358,-0.12015 -0.1809412,-0.21806 -0.3477276,-0.3897 -0.2108602,-0.21699 -0.2327151,-0.2521 -0.2138523,-0.34342 0.018109,-0.0878 0.062773,-0.14679 0.1364297,-0.18053 0.1206209,-0.0553 0.1967225,-0.0189 0.4213405,0.2016 0.2210332,0.21693 0.3803118,0.40532 0.5376509,0.636 0.308681,0.4525 0.5319611,1.00763 0.6217167,1.54573 0.1177095,0.70571 0.054781,1.41722 -0.181689,2.05425 -0.2047822,0.55169 -0.5187305,1.04677 -0.9142486,1.44174 -0.2598176,0.25947 -0.3433384,0.30684 -0.4642916,0.26334 z"
         style="fill:#c49f2f;fill-opacity:1;stroke:#7d4400;stroke-width:0.17719869;stroke-miterlimit:4;stroke-dasharray:none;stroke-opacity:1" />
      <path
         sodipodi:nodetypes="scccccccccccccccccccccscscsccccccccccccccccccc"
         inkscape:connector-curvature="0"
         id="path926"
         d="m 5.297522,287.87588 c -0.055406,0.002 -0.1116752,0.0122 -0.1683411,0.0312 -0.085018,0.0284 -0.1084977,0.0431 -0.2851615,0.17613 -0.282816,0.21295 -0.9170745,0.70322 -1.5677886,1.21194 L 2.70471,289.74206 H 2.0726821 1.4412533 l -0.088664,0.0443 c -0.1682857,0.0845 -0.2738232,0.18572 -0.3342859,0.32051 -0.020245,0.0451 -0.027215,0.0841 -0.035945,0.20308 -0.014212,0.19379 -0.014209,2.40889 0,2.59401 0.00983,0.12807 0.01296,0.13947 0.05212,0.21807 0.022734,0.0456 0.061947,0.10701 0.087465,0.13599 0.053883,0.0611 0.1594762,0.13404 0.2390323,0.16535 0.079743,0.031 0.2568949,0.0397 0.846498,0.0401 l 0.4966362,6.2e-4 0.1270045,0.0994 c 1.2963387,1.0178 2.1717024,1.68526 2.2591255,1.72236 0.01837,0.008 0.057229,0.02 0.086267,0.0282 0.1218156,0.0328 0.2789984,0.0127 0.411567,-0.0527 0.091323,-0.0451 0.2420227,-0.18288 0.275576,-0.25221 0.032101,-0.0663 0.048547,-0.1997 0.059908,-0.48046 0.012987,-0.32098 0.013557,-5.52872 6.134e-4,-5.85 -0.017349,-0.42982 -0.02693,-0.46614 -0.156374,-0.5949 -0.1445454,-0.14375 -0.3040585,-0.21383 -0.4702766,-0.20788 z m 0.01917,1.30539 c 0.0034,0.37823 0.00599,1.46772 0.00599,2.42148 0,0.95375 -0.00261,2.04308 -0.00599,2.42087 -0.00175,0.40546 -0.3518231,0.41769 -0.5589794,0.24851 l -0.8474663,-0.62084 c -0.3317054,-0.26684 -0.765669,-0.51856 -0.7700059,-0.93553 l -0.00239,-1.11062 c 0,0 2.006e-4,-0.78548 4.295e-4,-1.09323 0.012014,-0.44919 0.2403865,-0.51283 0.6130282,-0.80165 0,0 0.8279736,-0.6463 1.0873276,-0.8489 0.1950479,-0.11912 0.4768287,0.0936 0.4780712,0.31991 z m -3.7328585,1.17899 h 0.6236407 0.4106241 v 1.24728 1.24728 H 2.2074747 1.583834 v -1.24728 z"
         style="fill:#c49f2f;fill-opacity:1;stroke:#7d4400;stroke-width:0.23185755;stroke-miterlimit:4;stroke-dasharray:none;stroke-opacity:1" />
      <path
         inkscape:connector-curvature="0"
         id="path918"
         d="m 6.709014,293.71465 c -0.094685,-0.045 -0.1426276,-0.12848 -0.1329882,-0.23171 0.00705,-0.0756 0.032394,-0.11326 0.1756148,-0.26139 0.070334,-0.0728 0.1557804,-0.16702 0.1898814,-0.20952 0.2474216,-0.30832 0.4139558,-0.68823 0.472845,-1.07868 0.084453,-0.55996 -0.056579,-1.16098 -0.3806521,-1.62223 -0.077304,-0.11001 -0.1421283,-0.18642 -0.293438,-0.34587 -0.070342,-0.0742 -0.1353892,-0.14947 -0.1445486,-0.16743 -0.022714,-0.0445 -0.02756,-0.11581 -0.011602,-0.1707 0.018612,-0.0641 0.053452,-0.10561 0.1138026,-0.136 0.1298122,-0.0651 0.2253666,-0.0203 0.4464131,0.21015 0.3508551,0.36566 0.5927793,0.81625 0.7036383,1.31054 0.043733,0.19498 0.062693,0.42978 0.056075,0.69435 -0.01663,0.66465 -0.2890438,1.30876 -0.7595399,1.7959 -0.2187661,0.22651 -0.3111556,0.27162 -0.4354971,0.21259 z"
         style="fill:#c49f2f;fill-opacity:1;stroke:#7d4400;stroke-width:0.17719869;stroke-miterlimit:4;stroke-dasharray:none;stroke-opacity:1" />
    </g>
  </g>
</svg>
