<?xml version="1.0" encoding="UTF-8" standalone="no"?>
<!-- Created with Inkscape (http://www.inkscape.org/) -->

<svg
   xmlns:dc="http://purl.org/dc/elements/1.1/"
   xmlns:cc="http://creativecommons.org/ns#"
   xmlns:rdf="http://www.w3.org/1999/02/22-rdf-syntax-ns#"
   xmlns:svg="http://www.w3.org/2000/svg"
   xmlns="http://www.w3.org/2000/svg"
   xmlns:sodipodi="http://sodipodi.sourceforge.net/DTD/sodipodi-0.dtd"
   xmlns:inkscape="http://www.inkscape.org/namespaces/inkscape"
   width="40"
   height="40"
   viewBox="0 0 10.583333 10.583333"
   version="1.1"
   id="svg8"
   inkscape:version="0.92.5 (2060ec1f9f, 2020-04-08)"
   sodipodi:docname="statistics_soldiers.svg">
  <defs
     id="defs2" />
  <sodipodi:namedview
     id="base"
     pagecolor="#ffffff"
     bordercolor="#666666"
     borderopacity="1.0"
     inkscape:pageopacity="0.0"
     inkscape:pageshadow="2"
     inkscape:zoom="7.919596"
     inkscape:cx="-6.2681953"
     inkscape:cy="25.309762"
     inkscape:document-units="mm"
     inkscape:current-layer="layer1"
     showgrid="false"
     inkscape:window-width="1920"
     inkscape:window-height="1017"
     inkscape:window-x="0"
     inkscape:window-y="0"
     inkscape:window-maximized="1"
     units="px" />
  <metadata
     id="metadata5">
    <rdf:RDF>
      <cc:Work
         rdf:about="">
        <dc:format>image/svg+xml</dc:format>
        <dc:type
           rdf:resource="http://purl.org/dc/dcmitype/StillImage" />
        <dc:title></dc:title>
      </cc:Work>
    </rdf:RDF>
  </metadata>
  <g
     inkscape:label="Layer 1"
     inkscape:groupmode="layer"
     id="layer1"
     transform="translate(0,-286.41667)">
    <path
       style="opacity:1;fill:#ffffff;fill-opacity:1;stroke:#000000;stroke-width:0.2868394;stroke-miterlimit:4;stroke-dasharray:none;stroke-dashoffset:0;stroke-opacity:1"
       d="m 5.2916666,287.49414 c -1.1214216,0.88395 -1.8954982,1.05733 -3.3684644,1.0346 v 3.05312 c 0,1.58148 1.0859553,3.15948 3.3684644,4.4556 2.2825092,-1.29612 3.3684645,-2.87412 3.3684645,-4.4556 v -3.05312 c -1.472966,0.0227 -2.2470428,-0.15057 -3.3684645,-1.0346 z"
       id="rect3461"
       inkscape:connector-curvature="0"
       sodipodi:nodetypes="ccscscc" />
    <path
       style="opacity:1;fill:#a4a4a5;fill-opacity:1;stroke:none;stroke-width:0.25926095;stroke-miterlimit:4;stroke-dasharray:none;stroke-dashoffset:0;stroke-opacity:1"
       d="m 5.2916665,287.89461 c -1.0136014,0.79897 -1.7132536,0.9557 -3.0446001,0.93515 v 2.75956 c 0,1.42945 0.981545,2.85574 3.0446001,4.02722 2.0630552,-1.17148 3.0446004,-2.59777 3.0446004,-4.02722 v -2.75956 c -1.3313463,0.0204 -2.0309989,-0.13613 -3.0446004,-0.93515 z"
       id="rect3461-0-9"
       inkscape:connector-curvature="0"
       sodipodi:nodetypes="ccscscc" />
    <path
       style="opacity:1;fill:#0023aa;fill-opacity:1;stroke:none;stroke-width:0.22710662;stroke-miterlimit:4;stroke-dasharray:none;stroke-dashoffset:0;stroke-opacity:1"
       d="m 4.9186086,288.636 c -0.704516,0.46449 -1.2983589,0.56551 -2.2940575,0.55014 v 2.02792 h 2.2940575 z m 0.7466136,0 v 2.57806 h 2.29356 v -2.02792 c -0.9956983,0.0159 -1.5890442,-0.0858 -2.29356,-0.55014 z m -2.9964015,3.44606 c 0.1772525,0.99874 0.9119007,1.97763 2.2497879,2.82381 v -2.82381 z m 2.9964015,0 v 2.82381 c 1.3378872,-0.84618 2.0725355,-1.82507 2.2497879,-2.82381 z"
       id="rect3461-0"
       inkscape:connector-curvature="0" />
    <circle
       style="opacity:1;fill:#cecece;fill-opacity:1;stroke:none;stroke-width:0.2868394;stroke-miterlimit:4;stroke-dasharray:none;stroke-dashoffset:0;stroke-opacity:1"
       id="path3532"
       cx="5.2916665"
       cy="291.71234"
       r="0.91648805" />
  </g>
</svg>
