<?xml version="1.0" encoding="UTF-8" standalone="no"?>
<!-- Created with Inkscape (http://www.inkscape.org/) -->

<svg
   xmlns:dc="http://purl.org/dc/elements/1.1/"
   xmlns:cc="http://creativecommons.org/ns#"
   xmlns:rdf="http://www.w3.org/1999/02/22-rdf-syntax-ns#"
   xmlns:svg="http://www.w3.org/2000/svg"
   xmlns="http://www.w3.org/2000/svg"
   xmlns:sodipodi="http://sodipodi.sourceforge.net/DTD/sodipodi-0.dtd"
   xmlns:inkscape="http://www.inkscape.org/namespaces/inkscape"
   width="40"
   height="40"
   viewBox="0 0 10.583333 10.583333"
   version="1.1"
   id="svg8"
   inkscape:version="0.92.5 (2060ec1f9f, 2020-04-08)"
   sodipodi:docname="toggle_statistics.svg">
  <defs
     id="defs2" />
  <sodipodi:namedview
     id="base"
     pagecolor="#ffffff"
     bordercolor="#666666"
     borderopacity="1.0"
     inkscape:pageopacity="0.0"
     inkscape:pageshadow="2"
     inkscape:zoom="11.2"
     inkscape:cx="6.9270919"
     inkscape:cy="11.445327"
     inkscape:document-units="mm"
     inkscape:current-layer="layer1"
     showgrid="false"
     inkscape:window-width="1920"
     inkscape:window-height="1017"
     inkscape:window-x="0"
     inkscape:window-y="0"
     inkscape:window-maximized="1"
     units="px"
     showguides="false" />
  <metadata
     id="metadata5">
    <rdf:RDF>
      <cc:Work
         rdf:about="">
        <dc:format>image/svg+xml</dc:format>
        <dc:type
           rdf:resource="http://purl.org/dc/dcmitype/StillImage" />
        <dc:title></dc:title>
      </cc:Work>
    </rdf:RDF>
  </metadata>
  <g
     inkscape:label="Layer 1"
     inkscape:groupmode="layer"
     id="layer1"
     transform="translate(0,-286.41667)">
    <g
       id="g2627"
       transform="matrix(1.1522766,0,0,1.1522766,-0.80579706,-45.525226)">
      <path
         sodipodi:nodetypes="cccccccc"
         inkscape:connector-curvature="0"
         id="rect2597"
         d="m 5.2925869,288.69759 -4.0090577,4.00906 c 0.4032523,0.002 0.8064965,0.002 1.2097453,0.004 v 3.87861 h 5.5960407 v -3.87861 c 0.4041101,-0.002 0.8082156,-4.3e-4 1.212329,-0.004 z"
         style="opacity:1;fill:#fff115;fill-opacity:1;stroke:#d79400;stroke-width:0.40000001;stroke-miterlimit:4;stroke-dasharray:none;stroke-opacity:1" />
      <rect
         y="294.26764"
         x="4.57338"
         height="2.324425"
         width="1.4365737"
         id="rect2619"
         style="opacity:1;fill:#d79400;fill-opacity:1;stroke:#d79400;stroke-width:0.40000001;stroke-miterlimit:4;stroke-dasharray:none;stroke-opacity:1" />
    </g>
    <g
       aria-label="%"
       style="font-style:normal;font-weight:normal;font-size:3.52777767px;line-height:1.25;font-family:sans-serif;letter-spacing:0px;word-spacing:0px;fill:#000000;fill-opacity:1;stroke:none;stroke-width:0.26458332"
       id="text2623">
      <path
         d="m 6.4341099,291.49409 q -0.2098063,0 -0.3303847,0.17846 -0.1181668,0.17845 -0.1181668,0.49678 0,0.3135 0.1181668,0.49437 0.1205784,0.17846 0.3303847,0.17846 0.2049832,0 0.3231499,-0.17846 0.1205784,-0.18087 0.1205784,-0.49437 0,-0.31591 -0.1205784,-0.49437 -0.1181667,-0.18087 -0.3231499,-0.18087 z m 0,-0.30627 q 0.3810275,0 0.6053033,0.26528 0.2242757,0.26527 0.2242757,0.71623 0,0.45096 -0.2266873,0.71624 -0.2242757,0.26286 -0.6028917,0.26286 -0.3858507,0 -0.6101264,-0.26286 -0.2242758,-0.26528 -0.2242758,-0.71624 0,-0.45337 0.2242758,-0.71623 0.2266872,-0.26528 0.6101264,-0.26528 z m -2.4887371,-1.46864 q -0.2073947,0 -0.3279731,0.18087 -0.1181667,0.17845 -0.1181667,0.49196 0,0.31832 0.1181667,0.49678 0.1181668,0.17845 0.3279731,0.17845 0.2098064,0 0.3279731,-0.17845 0.1205784,-0.17846 0.1205784,-0.49678 0,-0.3111 -0.1205784,-0.49196 -0.1205783,-0.18087 -0.3279731,-0.18087 z m 2.1776449,-0.30627 H 6.5088685 L 4.256465,293.14843 H 3.8706143 Z m -2.1776449,0 q 0.3810276,0 0.6077149,0.26527 0.2266873,0.26286 0.2266873,0.71383 0,0.45578 -0.2266873,0.71864 -0.2242757,0.26286 -0.6077149,0.26286 -0.3834391,0 -0.6077148,-0.26286 -0.2218642,-0.26527 -0.2218642,-0.71864 0,-0.44856 0.2242757,-0.71383 0.2242758,-0.26527 0.6053033,-0.26527 z"
         style="font-size:4.93888903px;stroke-width:0.26458332"
         id="path817" />
    </g>
  </g>
</svg>
