<?xml version="1.0" encoding="UTF-8" standalone="no"?>
<!-- Created with Inkscape (http://www.inkscape.org/) -->

<svg
   xmlns:dc="http://purl.org/dc/elements/1.1/"
   xmlns:cc="http://creativecommons.org/ns#"
   xmlns:rdf="http://www.w3.org/1999/02/22-rdf-syntax-ns#"
   xmlns:svg="http://www.w3.org/2000/svg"
   xmlns="http://www.w3.org/2000/svg"
   xmlns:sodipodi="http://sodipodi.sourceforge.net/DTD/sodipodi-0.dtd"
   xmlns:inkscape="http://www.inkscape.org/namespaces/inkscape"
   width="40"
   height="40"
   viewBox="0 0 10.583333 10.583333"
   version="1.1"
   id="svg8"
   inkscape:version="0.92.5 (2060ec1f9f, 2020-04-08)"
   sodipodi:docname="toggle_census.svg">
  <defs
     id="defs2" />
  <sodipodi:namedview
     id="base"
     pagecolor="#ffffff"
     bordercolor="#666666"
     borderopacity="1.0"
     inkscape:pageopacity="0.0"
     inkscape:pageshadow="2"
     inkscape:zoom="11.2"
     inkscape:cx="7.5824569"
     inkscape:cy="10.495175"
     inkscape:document-units="mm"
     inkscape:current-layer="layer1"
     showgrid="false"
     inkscape:window-width="1920"
     inkscape:window-height="1017"
     inkscape:window-x="0"
     inkscape:window-y="0"
     inkscape:window-maximized="1"
     units="px"
     showguides="false" />
  <metadata
     id="metadata5">
    <rdf:RDF>
      <cc:Work
         rdf:about="">
        <dc:format>image/svg+xml</dc:format>
        <dc:type
           rdf:resource="http://purl.org/dc/dcmitype/StillImage" />
        <dc:title></dc:title>
      </cc:Work>
    </rdf:RDF>
  </metadata>
  <g
     inkscape:label="Layer 1"
     inkscape:groupmode="layer"
     id="layer1"
     transform="translate(0,-286.41667)">
    <g
       id="g2627"
       transform="matrix(1.1522766,0,0,1.1522766,-0.80579706,-45.525226)">
      <path
         sodipodi:nodetypes="cccccccc"
         inkscape:connector-curvature="0"
         id="rect2597"
         d="m 5.2925869,288.69759 -4.0090577,4.00906 c 0.4032523,0.002 0.8064965,0.002 1.2097453,0.004 v 3.87861 h 5.5960407 v -3.87861 c 0.4041101,-0.002 0.8082156,-4.3e-4 1.212329,-0.004 z"
         style="opacity:1;fill:#fff115;fill-opacity:1;stroke:#d79400;stroke-width:0.40000001;stroke-miterlimit:4;stroke-dasharray:none;stroke-opacity:1" />
      <rect
         y="294.26764"
         x="4.57338"
         height="2.324425"
         width="1.4365737"
         id="rect2619"
         style="opacity:1;fill:#d79400;fill-opacity:1;stroke:#d79400;stroke-width:0.40000001;stroke-miterlimit:4;stroke-dasharray:none;stroke-opacity:1" />
    </g>
    <g
       aria-label="?"
       style="font-style:normal;font-weight:normal;font-size:3.52777767px;line-height:1.25;font-family:sans-serif;letter-spacing:0px;word-spacing:0px;fill:#000000;fill-opacity:1;stroke:none;stroke-width:0.26458332"
       id="text2623">
      <path
         d="m 4.865853,292.07135 h 0.5594835 v 0.70004 H 4.865853 Z M 5.4088,291.66621 H 4.8823894 v -0.42444 q 0,-0.27836 0.07717,-0.45751 0.07717,-0.17914 0.325217,-0.41617 l 0.2480468,-0.24529 q 0.1570964,-0.14607 0.2259983,-0.2756 0.071658,-0.12954 0.071658,-0.26459 0,-0.24529 -0.181901,-0.39687 -0.179145,-0.15159 -0.4768013,-0.15159 -0.21773,0 -0.4657769,0.0965 -0.2452908,0.0965 -0.5126302,0.28112 v -0.51815 q 0.2590712,-0.15709 0.5236545,-0.23426 0.2673394,-0.0772 0.5512153,-0.0772 0.5071181,0 0.8130425,0.26734 0.3086806,0.26734 0.3086806,0.70555 0,0.20946 -0.099219,0.39963 -0.099219,0.18742 -0.3472657,0.42444 l -0.2425347,0.23702 q -0.1295356,0.12954 -0.1846571,0.20395 -0.052366,0.0717 -0.074414,0.14056 -0.016536,0.0579 -0.024805,0.14056 -0.00827,0.0827 -0.00827,0.226 z"
         style="font-size:5.64444447px;stroke-width:0.26458332"
         id="path817" />
    </g>
  </g>
</svg>
